<?xml version="1.0" encoding="utf-8"?>
<!-- Generator: Adobe Illustrator 24.3.0, SVG Export Plug-In . SVG Version: 6.00 Build 0)  -->
<svg version="1.1" id="Layer_1" xmlns="http://www.w3.org/2000/svg" xmlns:xlink="http://www.w3.org/1999/xlink" x="0px" y="0px"
	 viewBox="0 0 66.2 26.2" style="enable-background:new 0 0 66.2 26.2;" xml:space="preserve">
<style type="text/css">
	.st0{fill:#FFFFFF;}
</style>
<g>
	<g>
		<g>
			<path class="st0" d="M23.5,5.9c-0.5-0.8-1.1-1.6-1.8-2.3c-1.1-1.1-2.4-2-4-2.6c-1.5-0.7-3.2-1-5.1-1C10.7,0,9,0.3,7.5,1
				C6,1.6,4.7,2.5,3.5,3.6c-1.1,1.1-2,2.5-2.6,4S0,10.8,0,12.5c0,1.8,0.3,3.4,0.9,4.9s1.5,2.9,2.6,4s2.4,2,4,2.6
				c1.5,0.6,3.2,1,5.1,1c1.8,0,3.4-0.3,4.9-0.9c-0.3-0.2-0.5-0.4-0.8-0.7c-0.8-0.8-1.5-1.7-2-2.8C14,20.9,13.3,21,12.6,21
				c-1.1,0-2.2-0.2-3.2-0.6s-1.8-1-2.5-1.7C6.2,17.9,5.6,17,5.2,16s-0.6-2.2-0.6-3.5S4.8,10.1,5.2,9s1-1.9,1.7-2.7
				C7.6,5.6,8.5,5,9.4,4.6c1-0.4,2-0.6,3.2-0.6s2.2,0.2,3.2,0.6c1,0.4,1.8,1,2.5,1.7c0.2,0.2,0.4,0.5,0.6,0.8c0.3-0.2,0.7-0.3,1-0.5
				C21.1,6.2,22.2,6,23.5,5.9z"/>
			<path class="st0" d="M32.9,7.9H36V1.7h4.2v6.2h6.4v3.9h-6.4v6.1c0,0.6,0,1.1,0.1,1.4c0.1,0.4,0.3,0.7,0.5,0.9s0.5,0.4,0.9,0.5
				s0.8,0.1,1.4,0.1h3.5v3.9h-4c-1.2,0-2.2-0.1-3-0.3c-0.8-0.2-1.5-0.5-2.1-0.9s-1-1-1.2-1.6c-0.3-0.7-0.4-1.5-0.4-2.5v-7.6h-3.2
				V7.9H32.9z"/>
			<path class="st0" d="M60.7,24.4c-1.1,0.5-2.3,0.7-3.6,0.7s-2.5-0.2-3.6-0.7s-2.1-1.1-2.9-1.9c-0.8-0.8-1.5-1.7-1.9-2.8
				c-0.5-1.1-0.7-2.3-0.7-3.5c0-1.3,0.2-2.4,0.7-3.5s1.1-2,1.9-2.8c0.8-0.8,1.8-1.4,2.9-1.9c1.1-0.5,2.3-0.7,3.6-0.7
				s2.5,0.2,3.6,0.7s2.1,1.1,2.9,1.9c0.8,0.8,1.5,1.8,1.9,2.8c0.5,1.1,0.7,2.2,0.7,3.5s-0.2,2.4-0.7,3.5s-1.1,2-1.9,2.8
				C62.8,23.3,61.9,23.9,60.7,24.4z M55.2,20.6c0.6,0.2,1.2,0.4,2,0.4c0.7,0,1.4-0.1,2-0.4c0.6-0.2,1.1-0.6,1.5-1s0.7-0.9,0.9-1.5
				s0.3-1.2,0.3-1.9s-0.1-1.3-0.3-1.9c-0.2-0.6-0.5-1.1-0.9-1.5s-0.9-0.8-1.5-1c-0.6-0.3-1.2-0.4-2-0.4c-0.7,0-1.4,0.1-2,0.4
				c-0.6,0.3-1.1,0.6-1.5,1s-0.7,0.9-0.9,1.5s-0.3,1.2-0.3,1.9c0,0.7,0.1,1.3,0.3,1.9s0.5,1.1,0.9,1.5C54.1,20,54.6,20.4,55.2,20.6z
				"/>
		</g>
		<path class="st0" d="M15,20.1c-0.5-1.2-0.7-2.5-0.7-3.9s0.2-2.7,0.7-3.9s1.2-2.2,2.1-3.1C18,8.3,19,7.6,20.3,7.1
			c1.2-0.5,2.5-0.7,4-0.7c1.3,0,2.4,0.1,3.4,0.4s2,0.6,3,1.1L28.9,12c-0.6-0.4-1.3-0.6-2-0.8s-1.5-0.3-2.4-0.3
			c-0.8,0-1.5,0.1-2.2,0.4c-0.7,0.3-1.2,0.6-1.7,1.1s-0.8,1-1.1,1.7c-0.3,0.6-0.4,1.4-0.4,2.2c0,0.8,0.1,1.5,0.4,2.2
			c0.3,0.6,0.6,1.2,1.1,1.7s1,0.8,1.7,1.1c0.7,0.3,1.4,0.4,2.2,0.4c0.9,0,1.6-0.1,2.4-0.3c0.7-0.2,1.4-0.5,2-0.9l1.8,4.2
			c-0.9,0.5-1.9,0.8-3,1.1c-1,0.3-2.2,0.4-3.4,0.4c-1.4,0-2.7-0.2-4-0.7c-1.2-0.5-2.3-1.2-3.2-2C16.2,22.3,15.5,21.3,15,20.1z"/>
		<path class="st0" d="M25.1,11.4c-0.2,0-0.5,0-0.8,0c-0.7,0-1.4,0.1-2,0.3c-0.7,0.3-1.3,0.7-1.7,1.2l0,0c0,1.1-0.2,2.1-0.6,3
			c-0.1,0.3-0.3,0.6-0.4,0.9c0,0.5,0.2,0.9,0.3,1.3c0.2,0.6,0.6,1.1,1,1.5s0.9,0.7,1.6,1l0,0c0.8-0.9,1.4-2,1.8-3.1
			c0.6-1.5,0.9-3.2,0.9-4.9C25.2,12.2,25.2,11.8,25.1,11.4z"/>
	</g>
</g>
</svg>
